<svg width="32" height="32" viewBox="0 0 36 36" fill="none" xmlns="http://www.w3.org/2000/svg">
    <g transform="translate(2, 2)">
        <path d="M0.36084 16.359C0.36084 7.52245 7.52428 0.359009 16.3608 0.359009C25.1974 0.359009 32.3608 7.52245 32.3608 16.359C32.3608 25.1956 25.1974 32.359 16.3608 32.359C7.52428 32.359 0.36084 25.1956 0.36084 16.359Z" fill="white"/>
        <path fill-rule="evenodd" clip-rule="evenodd" d="M18.8608 7.35901H13.8608L12.8608 8.35901H9.36084V10.359H23.3608V8.35901H19.8608L18.8608 7.35901ZM20.3608 13.359V23.359H12.3608V13.359H20.3608ZM10.3608 11.359H22.3608V23.359C22.3608 24.459 21.4608 25.359 20.3608 25.359H12.3608C11.2608 25.359 10.3608 24.459 10.3608 23.359V11.359Z" fill="#17262B"/>
        <path d="M16.3608 31.359C8.07657 31.359 1.36084 24.6433 1.36084 16.359H-0.63916C-0.63916 25.7478 6.972 33.359 16.3608 33.359V31.359ZM31.3608 16.359C31.3608 24.6433 24.6451 31.359 16.3608 31.359V33.359C25.7497 33.359 33.3608 25.7478 33.3608 16.359H31.3608ZM16.3608 1.35901C24.6451 1.35901 31.3608 8.07474 31.3608 16.359H33.3608C33.3608 6.97017 25.7497 -0.640991 16.3608 -0.640991V1.35901ZM16.3608 -0.640991C6.972 -0.640991 -0.63916 6.97017 -0.63916 16.359H1.36084C1.36084 8.07474 8.07657 1.35901 16.3608 1.35901V-0.640991Z" fill="#C4C7C8"/>
    </g>
</svg>
